<svg xmlns="http://www.w3.org/2000/svg" width="29" height="28.661" viewBox="0 0 29 28.661">
  <g id="Group_201" data-name="Group 201" transform="translate(-2 -2)">
    <path id="Path_128" data-name="Path 128" d="M6.35,23.4v5.461l2.2-1.318,6.9-4.143H22.3a2.9,2.9,0,0,0,2.9-2.9V8.9A2.9,2.9,0,0,0,22.3,6H4.9A2.9,2.9,0,0,0,2,8.9V20.5a2.9,2.9,0,0,0,2.9,2.9ZM4.9,8.9H22.3V20.5H14.648l-5.4,3.239V20.5H4.9Z" transform="translate(0 1.8)" fill="#e5a00f"/>
    <path id="Path_129" data-name="Path 129" d="M26.3,2H8.9A2.9,2.9,0,0,0,6,4.9H23.4a2.9,2.9,0,0,1,2.9,2.9V19.4a2.9,2.9,0,0,0,2.9-2.9V4.9A2.9,2.9,0,0,0,26.3,2Z" transform="translate(1.8)" fill="#e5a00f"/>
  </g>
</svg>
