<svg xmlns="http://www.w3.org/2000/svg" width="27.818" height="34" viewBox="0 0 27.818 34">
  <path id="_9110995_file_checked_icon" data-name="9110995_file_checked_icon" d="M21.545,4.731v5.542h5.542Zm6.182,8.633H21.545a3.091,3.091,0,0,1-3.091-3.091V4.091H6.091V31.909H27.727ZM6.091,1H22.186l8.633,8.633V31.909A3.091,3.091,0,0,1,27.727,35H6.091A3.091,3.091,0,0,1,3,31.909V4.091A3.091,3.091,0,0,1,6.091,1Zm9.273,22.542L22,16.907l2.186,2.186-8.82,8.82L9.634,22.184,11.82,20Z" transform="translate(-3 -1)" fill="#e5a00f" fill-rule="evenodd"/>
</svg>
