<svg xmlns="http://www.w3.org/2000/svg" width="19.687" height="21.199" viewBox="0 0 19.687 21.199">
  <g id="Group_364" data-name="Group 364" transform="translate(-282 -173)">
    <path id="_2867889_duplicate_icon" data-name="2867889_duplicate_icon" d="M18.312,7.375h2.461a1.909,1.909,0,0,1,1.914,1.914v13A1.909,1.909,0,0,1,20.773,24.2H9.289a1.909,1.909,0,0,1-1.914-1.914V18.312H4.914A1.909,1.909,0,0,1,3,16.4V4.914A1.909,1.909,0,0,1,4.914,3H16.4a1.909,1.909,0,0,1,1.914,1.914Zm-2.187,0V5.187H5.187V16.125H7.375V9.289A1.909,1.909,0,0,1,9.289,7.375ZM9.562,9.562V22.011H20.5V9.562Z" transform="translate(279 170)" fill="#fff"/>
    <rect id="Rectangle_1217" data-name="Rectangle 1217" width="6" height="1" transform="translate(290.844 181.908)" fill="#fff"/>
    <rect id="Rectangle_1218" data-name="Rectangle 1218" width="6" height="1" transform="translate(290.844 183.908)" fill="#fff"/>
    <rect id="Rectangle_1219" data-name="Rectangle 1219" width="6" height="1" transform="translate(290.844 185.908)" fill="#fff"/>
    <rect id="Rectangle_1220" data-name="Rectangle 1220" width="6" height="1" transform="translate(290.844 187.908)" fill="#fff"/>
  </g>
</svg>
