<svg xmlns="http://www.w3.org/2000/svg" width="28" height="31.5" viewBox="0 0 28 31.5">
  <g id="Layer_1" transform="translate(-4 -3)">
    <g id="Group_123" data-name="Group 123" transform="translate(4 3)">
      <path id="Path_86" data-name="Path 86" d="M26.75,34.5H9.25A5.256,5.256,0,0,1,4,29.25v-21A5.256,5.256,0,0,1,9.25,3h17.5A5.256,5.256,0,0,1,32,8.25v21A5.256,5.256,0,0,1,26.75,34.5ZM9.25,6.5A1.753,1.753,0,0,0,7.5,8.25v21A1.753,1.753,0,0,0,9.25,31h17.5a1.753,1.753,0,0,0,1.75-1.75v-21A1.753,1.753,0,0,0,26.75,6.5Z" transform="translate(-4 -3)" fill="#fff"/>
    </g>
    <g id="Group_124" data-name="Group 124" transform="translate(10.125 15.25)">
      <path id="Path_87" data-name="Path 87" d="M22.375,11.75h-14a.875.875,0,0,1,0-1.75h14a.875.875,0,1,1,0,1.75Z" transform="translate(-7.5 -10)" fill="#fff"/>
    </g>
    <g id="Group_125" data-name="Group 125" transform="translate(10.125 10)">
      <path id="Path_88" data-name="Path 88" d="M22.375,8.75h-14a.875.875,0,0,1,0-1.75h14a.875.875,0,1,1,0,1.75Z" transform="translate(-7.5 -7)" fill="#fff"/>
    </g>
    <g id="Group_126" data-name="Group 126" transform="translate(10.125 20.5)">
      <path id="Path_89" data-name="Path 89" d="M22.375,14.75h-14a.875.875,0,0,1,0-1.75h14a.875.875,0,0,1,0,1.75Z" transform="translate(-7.5 -13)" fill="#fff"/>
    </g>
    <g id="Group_127" data-name="Group 127" transform="translate(10.125 25.75)">
      <path id="Path_90" data-name="Path 90" d="M22.375,17.75h-14a.875.875,0,0,1,0-1.75h14a.875.875,0,1,1,0,1.75Z" transform="translate(-7.5 -16)" fill="#fff"/>
    </g>
  </g>
</svg>
