<svg xmlns="http://www.w3.org/2000/svg" width="27" height="30.007" viewBox="0 0 27 30.007">
  <path id="_8673624_ic_fluent_patient_filled_icon" data-name="8673624_ic_fluent_patient_filled_icon" d="M26.625,2A3.375,3.375,0,0,1,30,5.375V28.632a3.375,3.375,0,0,1-3.375,3.375H6.375A3.375,3.375,0,0,1,3,28.632V5.375A3.375,3.375,0,0,1,6.144,2.008L6.375,2ZM27.75,23H5.25v5.632a1.125,1.125,0,0,0,1.125,1.125h20.25a1.125,1.125,0,0,0,1.125-1.125ZM10.127,25.25H22.875a1.125,1.125,0,0,1,.153,2.24l-.153.01H10.127a1.125,1.125,0,0,1-.153-2.24l.153-.01h0Zm16.5-21H6.375l-.153.01A1.125,1.125,0,0,0,5.25,5.375V20.75H10.5V17.368A1.875,1.875,0,0,1,12.183,15.5l.192-.01h8.25a1.875,1.875,0,0,1,1.865,1.683l.01.192V20.75h5.25V5.375A1.125,1.125,0,0,0,26.625,4.25ZM16.5,6.493a3.75,3.75,0,1,1-3.75,3.75A3.75,3.75,0,0,1,16.5,6.493Z" transform="translate(-3 -2)" fill="#fff"/>
</svg>
