<svg width="208" height="218" viewBox="0 0 208 218" fill="none" xmlns="http://www.w3.org/2000/svg">
<g clip-path="url(#clip0_437_23)">
<path d="M177.45 0H31.38C14.35 0 0 14.66 0 32.24V143.3C0 160.88 14.35 175 31.38 175H84.29L147 217.2V175H177.45C194.48 175 208 160.88 208 143.3V32.24C208 14.66 194.48 0 177.45 0ZM190 143.3C190 150.54 184.46 157 177.45 157H129V182.7L89.66 157H31.38C24.37 157 19 150.54 19 143.3V32.24C19 25 24.37 19 31.38 19H177.44C184.45 19 189.99 25 189.99 32.24V143.3H190Z" fill="#696969"/>
<path d="M146.18 49.35C144.79 47.86 142.49 47.81 141.04 49.25L92.1101 97.94C90.7501 99.29 88.6201 99.34 87.2001 98.06L63.8401 76.95C62.3301 75.58 60.0301 75.74 58.7101 77.3L51.5301 85.77C50.2101 87.33 50.3601 89.7 51.8701 91.06L87.7901 123.51C89.2101 124.79 91.3401 124.74 92.7001 123.39L153.65 62.75C155.1 61.31 155.14 58.94 153.75 57.45L146.19 49.34L146.18 49.35Z" fill="#696969"/>
</g>
<defs>
<clipPath id="clip0_437_23">
<rect width="208" height="217.2" fill="white"/>
</clipPath>
</defs>
</svg>
