<svg xmlns="http://www.w3.org/2000/svg" width="28" height="31.111" viewBox="0 0 28 31.111">
  <path id="_9055186_bxs_calendar_check_icon" data-name="9055186_bxs_calendar_check_icon" d="M6.111,33.111H27.889A3.114,3.114,0,0,0,31,30V8.222a3.114,3.114,0,0,0-3.111-3.111H24.778V2H21.667V5.111H12.333V2H9.222V5.111H6.111A3.114,3.114,0,0,0,3,8.222V30A3.114,3.114,0,0,0,6.111,33.111Zm9.333-5.578L9.678,21.766l2.2-2.2,3.567,3.567,6.678-6.678,2.2,2.2ZM6.111,9.778H27.889v3.111H6.111Z" transform="translate(-3 -2)" fill="#fff"/>
</svg>
