<svg xmlns="http://www.w3.org/2000/svg" width="18.764" height="18.764" viewBox="0 0 18.764 18.764">
  <g id="_9057296_track_icon" data-name="9057296_track_icon" transform="translate(-3 -3)">
    <path id="Path_595" data-name="Path 595" d="M12.127,15.255A3.127,3.127,0,1,0,9,12.127,3.127,3.127,0,0,0,12.127,15.255Z" transform="translate(0.255 0.255)" fill="#fff"/>
    <path id="Path_596" data-name="Path 596" d="M12.382,3a1.042,1.042,0,0,1,1.042,1.042V5.159a7.3,7.3,0,0,1,6.181,6.181h1.116a1.042,1.042,0,0,1,0,2.085H19.605a7.3,7.3,0,0,1-6.181,6.181v1.116a1.042,1.042,0,0,1-2.085,0V19.605a7.3,7.3,0,0,1-6.181-6.181H4.042a1.042,1.042,0,1,1,0-2.085H5.159A7.3,7.3,0,0,1,11.34,5.159V4.042A1.042,1.042,0,0,1,12.382,3ZM7.17,12.382a5.212,5.212,0,1,1,5.212,5.212A5.212,5.212,0,0,1,7.17,12.382Z" fill="#fff" fill-rule="evenodd"/>
  </g>
</svg>
